<svg width="132" height="36" viewBox="0 0 132 36" fill="none" xmlns="http://www.w3.org/2000/svg">
<path d="M2.39062 35V31.2734H12.4219C14.9531 31.2734 16.875 30.7734 18.1875 29.7734C19.5156 28.7578 20.1797 27.2812 20.1797 25.3438V25.2969C20.1797 23.9844 19.875 22.8906 19.2656 22.0156C18.6562 21.1406 17.7422 20.4844 16.5234 20.0469C15.3203 19.6094 13.8203 19.3906 12.0234 19.3906H2.39062V15.7578H10.8281C13.3281 15.7578 15.2344 15.2734 16.5469 14.3047C17.875 13.3359 18.5391 11.9375 18.5391 10.1094V10.0625C18.5391 8.39062 17.9844 7.11719 16.875 6.24219C15.7656 5.35156 14.1875 4.90625 12.1406 4.90625H2.39062V1.17969H13.1016C15.0391 1.17969 16.7344 1.53125 18.1875 2.23438C19.6406 2.9375 20.7734 3.92188 21.5859 5.1875C22.3984 6.45312 22.8047 7.92969 22.8047 9.61719V9.66406C22.8047 10.8359 22.5391 11.9531 22.0078 13.0156C21.4766 14.0781 20.75 14.9766 19.8281 15.7109C18.9062 16.4297 17.8594 16.875 16.6875 17.0469V17.1406C18.3125 17.3281 19.7109 17.7969 20.8828 18.5469C22.0547 19.2969 22.9531 20.2656 23.5781 21.4531C24.2031 22.625 24.5156 23.9609 24.5156 25.4609V25.5078C24.5156 27.4922 24.0547 29.1953 23.1328 30.6172C22.2266 32.0234 20.9219 33.1094 19.2188 33.875C17.5156 34.625 15.4609 35 13.0547 35H2.39062ZM0.28125 35V1.17969H4.5V35H0.28125Z" fill="#FFC201"/>
<path d="M29.2969 35V1.17969H50.25V4.97656H33.5156V15.8281H49.3828V19.5781H33.5156V31.2031H50.25V35H29.2969ZM55.8281 35V1.17969H60.0469V31.2031H76.3594V35H55.8281ZM84.3984 35V4.97656H73.7344V1.17969H99.2812V4.97656H88.6172V35H84.3984ZM115.922 35.5625C112.719 35.5625 109.945 34.8516 107.602 33.4297C105.273 32.0078 103.477 29.9922 102.211 27.3828C100.945 24.7734 100.312 21.6797 100.312 18.1016V18.0547C100.312 14.4766 100.945 11.3906 102.211 8.79688C103.492 6.1875 105.297 4.17188 107.625 2.75C109.969 1.32812 112.734 0.617188 115.922 0.617188C119.109 0.617188 121.867 1.32812 124.195 2.75C126.523 4.17188 128.32 6.1875 129.586 8.79688C130.852 11.3906 131.484 14.4766 131.484 18.0547V18.1016C131.484 21.6797 130.852 24.7734 129.586 27.3828C128.32 29.9922 126.523 32.0078 124.195 33.4297C121.883 34.8516 119.125 35.5625 115.922 35.5625ZM115.922 31.6719C118.25 31.6719 120.25 31.1172 121.922 30.0078C123.609 28.8828 124.906 27.3047 125.812 25.2734C126.719 23.2422 127.172 20.8516 127.172 18.1016V18.0547C127.172 15.2891 126.711 12.8906 125.789 10.8594C124.883 8.82812 123.586 7.26562 121.898 6.17188C120.211 5.0625 118.219 4.50781 115.922 4.50781C113.625 4.50781 111.625 5.0625 109.922 6.17188C108.234 7.26562 106.93 8.82812 106.008 10.8594C105.086 12.875 104.625 15.2734 104.625 18.0547V18.1016C104.625 20.8672 105.086 23.2656 106.008 25.2969C106.93 27.3281 108.234 28.8984 109.922 30.0078C111.609 31.1172 113.609 31.6719 115.922 31.6719Z" fill="white"/>
</svg>
