<svg
    xmlns="http://www.w3.org/2000/svg"
    viewBox="0 0 64 64"
    width="64px"
    height="64px"
    fill="#FFD700"
>
    <circle cx="32" cy="32" r="30" stroke="#FFD700" stroke-width="4" fill="none" />
    <path
        d="M32 2C17.641 2 6 13.641 6 28c0 3.556 0.688 6.949 1.922 10.09A39.528 39.528 0 0 1 9.198 32c4.518-9.477 15.164-16 22.802-16 7.638 0 18.284 6.523 22.802 16a39.528 39.528 0 0 1 1.276 6.09C57.312 34.949 58 31.556 58 28 58 13.641 46.359 2 32 2zm0 4c6.748 0 16.029 6.338 20.717 14C48.029 21.662 38.748 28 32 28c-6.748 0-16.029-6.338-20.717-14C15.971 12.338 25.252 6 32 6zm0 52c14.359 0 26-11.641 26-26 0-3.556-0.688-6.949-1.922-10.09a39.528 39.528 0 0 0-1.276 6.09C57.312 37.051 58 40.444 58 44c0 14.359-11.641 26-26 26S6 58.359 6 44c0-3.556 0.688-6.949 1.922-10.09a39.528 39.528 0 0 0 1.276 6.09C6.688 43.051 6 46.444 6 50c0 14.359 11.641 26 26 26z"
        fill="#FFD700"
    />
    <circle cx="32" cy="32" r="16" fill="none" stroke="#FFD700" stroke-width="4" />
    <path
        d="M32 16c-8.84 0-16 7.16-16 16s7.16 16 16 16 16-7.16 16-16-7.16-16-16-16zm0 2c7.732 0 14 6.268 14 14s-6.268 14-14 14-14-6.268-14-14 6.268-14 14-14zm-1 1v24h2V19h-2zm10.949 12H22.051a12.066 12.066 0 0 1 0-2h19.898a12.066 12.066 0 0 1 0 2z"
        fill="#FFD700"
    />
</svg>
